<?xml version="1.0" standalone="no"?>
<svg id="blob-left" viewBox="0 0 200 200" xmlns="http://www.w3.org/2000/svg">
  <path fill="#4B3F72" d="M45.2,-69.1C59,-61.5,70.7,-49.6,73.7,-35.8C76.7,-22,71,-6.3,67.4,8.8C63.8,23.8,62.2,38.2,54,45.5C45.7,52.8,30.6,53,16.7,57.3C2.7,61.6,-10.2,70.1,-23.1,70.2C-36,70.2,-49,62,-55.6,50.4C-62.3,38.8,-62.7,23.9,-67.2,8.2C-71.7,-7.5,-80.4,-24.1,-74.8,-33.3C-69.3,-42.6,-49.5,-44.4,-34.7,-51.5C-19.9,-58.6,-9.9,-70.8,2.9,-75.4C15.7,-79.9,31.5,-76.7,45.2,-69.1Z" transform="translate(100 100)" />
</svg>
