<?xml version="1.0" encoding="UTF-8"?>
<svg id="puzzle-left" xmlns="http://www.w3.org/2000/svg"  viewBox="0 0 249 149.37" xmlns:xlink="http://www.w3.org/1999/xlink" xmlns:xodm="http://www.corel.com/coreldraw/odm/2003">
 <path fill="#ffc857" d="M218.53 102.81c16.41,0 29.71,-13.3 29.71,-29.71 0,-16.41 -13.3,-29.71 -29.71,-29.71 -7.61,0 -14.55,2.86 -19.81,7.56l0 -50.95 -59.17 0c6.15,5.44 10.03,13.4 10.03,22.26 0,16.41 -13.3,29.72 -29.71,29.72 -16.41,0 -29.71,-13.31 -29.71,-29.72 0,-8.86 3.88,-16.82 10.04,-22.26l-50.85 0 0 51.49c-5.32,-5.02 -12.5,-8.1 -20.39,-8.1 -16.42,0 -29.72,13.3 -29.72,29.71 0,16.41 13.3,29.71 29.72,29.71 7.89,0 15.07,-3.08 20.39,-8.1l0 54.66 52.33 0c-5.87,-5.43 -9.54,-13.19 -9.54,-21.81 0,-16.41 13.31,-29.71 29.72,-29.71 16.41,0 29.71,13.3 29.71,29.71 0,8.62 -3.67,16.38 -9.53,21.81l56.68 0 0 -54.12c5.26,4.7 12.2,7.56 19.81,7.56z"/>
</svg>
