<?xml version="1.0" encoding="UTF-8"?>
<svg id="puzzle-right" xmlns="http://www.w3.org/2000/svg" viewBox="0 0 200 199.52" xmlns:xlink="http://www.w3.org/1999/xlink" xmlns:xodm="http://www.corel.com/coreldraw/odm/2003">
  <path fill="#119da4" d="M169.71 154.2c16.27,0 29.45,-13.19 29.45,-29.45 0,-16.26 -13.18,-29.45 -29.45,-29.45 -9.03,0 -17.11,4.07 -22.51,10.47l0 -54.23 -56.18 0c6.08,-5.39 9.91,-13.26 9.91,-22.03 0,-16.26 -13.19,-29.45 -29.45,-29.45 -16.26,0 -29.45,13.19 -29.45,29.45 0,8.77 3.83,16.64 9.91,22.03l-52.78 0 0 51.72c5.4,-6.51 13.55,-10.65 22.67,-10.65 16.27,0 29.45,13.18 29.45,29.45 0,16.26 -13.18,29.45 -29.45,29.45 -9.12,0 -17.27,-4.15 -22.67,-10.66l0 58.73 56.34 0c-7.35,-5.35 -12.13,-14.03 -12.13,-23.83 0,-16.26 13.18,-29.45 29.44,-29.45 16.27,0 29.45,13.19 29.45,29.45 0,9.8 -4.78,18.48 -12.14,23.83l57.08 0 0 -55.85c5.4,6.4 13.48,10.47 22.51,10.47z"/>
</svg>
