<?xml version="1.0" encoding="UTF-8"?>
<svg id="send" xmlns="http://www.w3.org/2000/svg" viewBox="0 0 30 28.79"
 xmlns:xlink="http://www.w3.org/1999/xlink"
 xmlns:xodm="http://www.corel.com/coreldraw/odm/2003">
 <g>
  <path class="fil0" d="M0.47 28.97c0.41,0.39 1.15,0.57 1.8,0.28 1.05,-0.47 2.12,-1.01 3.15,-1.5l19.15 -9.15c1.07,-0.51 2.11,-1.04 3.18,-1.53 1.04,-0.47 2.49,-0.89 2.22,-2.37 -0.2,-1.11 -1.66,-1.53 -2.7,-2.01l-9.58 -4.58c-4.21,-2.05 -8.48,-4.04 -12.71,-6.08 -1.82,-0.88 -3.87,-2.38 -4.82,-0.57 -0.33,0.62 -0.07,1.28 0.1,1.89 0.69,2.5 1.32,4.93 2.01,7.42 0.6,2.15 0.12,2.05 2.37,2.35l10.34 1.41c1.38,0.18 1.6,0.09 1.5,0.72 -0.78,0.25 -10.72,1.52 -12.39,1.74 -1.45,0.2 -1.22,-0.1 -1.96,2.76 -0.63,2.47 -1.36,4.96 -2.01,7.42 -0.19,0.72 -0.1,1.39 0.35,1.8z"/>
 </g>
</svg>
