<?xml version="1.0" encoding="UTF-8"?>
<!DOCTYPE svg PUBLIC "-//W3C//DTD SVG 1.1//EN" "http://www.w3.org/Graphics/SVG/1.1/DTD/svg11.dtd">
<svg xmlns="http://www.w3.org/2000/svg" xml:space="preserve" width="20px" height="20px" version="1.1" style="shape-rendering:geometricPrecision; text-rendering:geometricPrecision; image-rendering:optimizeQuality; fill-rule:evenodd; clip-rule:evenodd"
viewBox="0 0 20 20"
 xmlns:xlink="http://www.w3.org/1999/xlink"
 xmlns:xodm="http://www.corel.com/coreldraw/odm/2003">
 <defs>
  <style type="text/css">
   <![CDATA[
    .fil0 {fill:#FEFEFE}
    .fil1 {fill:black}
   ]]>
  </style>
 </defs>
 <g>
  <circle class="fil0" cx="10.01" cy="10.15" r="9.74"/>
  <path class="fil1" d="M10 7.51c0.45,0.19 1.23,1.12 1.6,1.5 0.66,0.69 1.67,2.08 1.92,3.09 0.61,2.41 -1.31,4.32 -3.51,4.34 -1.18,0 -2.36,-0.69 -2.82,-1.28 -1.57,-2.02 -0.6,-3.88 0.81,-5.63 0.31,-0.39 0.61,-0.71 0.95,-1.06l1.05 -0.96zm-1.7 -0.93c-0.2,0.2 -0.42,0.38 -0.64,0.6 -0.44,0.43 -1.39,1.53 -1.73,2.03 -0.67,0.99 -1.38,2.15 -1.35,3.72 0.05,2.85 2.18,4.94 4.8,5.28 2.59,0.34 5.25,-1.34 5.91,-4.07 0.4,-1.62 0.01,-2.87 -0.65,-4.1 -0.53,-0.97 -1.01,-1.43 -1.6,-2.15 -0.2,-0.25 -0.47,-0.46 -0.63,-0.69 0.15,-0.23 0.45,-0.51 0.26,-1.01 -0.14,-0.38 -0.38,-0.53 -0.8,-0.63 -0.75,-0.18 -1.5,-0.39 -2.26,-0.56 -0.74,-0.17 -1.61,-0.62 -2.13,-0.01 -0.41,0.48 -0.27,1.28 0.57,1.48 0.07,0.02 0.08,0.01 0.14,0.04 0.16,0.06 -0.14,-0.08 0.06,0.03 0.01,0 0.02,0.01 0.03,0.02 0,0 0.02,0.01 0.02,0.02z"/>
  <path class="fil1" d="M10.91 0.55l-1.81 0 0.01 1.43c-0.61,-0.05 -1.06,-0.4 -1.56,0.05 -0.41,0.38 -0.35,1.1 0.07,1.39 0.28,0.2 2.59,0.73 3.14,0.86 0.5,0.12 1.15,0.41 1.6,0.05 0.34,-0.26 0.84,-1.3 -0.58,-1.66 -0.11,-0.03 -0.75,-0.18 -0.79,-0.2 -0.12,-0.07 -0.08,-0.2 -0.08,-0.4l0 -1.52z"/>
 </g>
</svg>
