<?xml version="1.0" encoding="UTF-8"?>
<!DOCTYPE svg PUBLIC "-//W3C//DTD SVG 1.1//EN" "http://www.w3.org/Graphics/SVG/1.1/DTD/svg11.dtd">
<svg xmlns="http://www.w3.org/2000/svg" xml:space="preserve" width="300px" height="300px" version="1.1" style="shape-rendering:geometricPrecision; text-rendering:geometricPrecision; image-rendering:optimizeQuality; fill-rule:evenodd; clip-rule:evenodd"
viewBox="0 0 300 300"
 xmlns:xlink="http://www.w3.org/1999/xlink"
 xmlns:xodm="http://www.corel.com/coreldraw/odm/2003">
 <defs>
  <style type="text/css">
   <![CDATA[
    .str0 {stroke:#FEFEFE;stroke-width:4.17;stroke-miterlimit:22.9256;stroke-linecap:round}
    .fil0 {fill:none}
   ]]>
  </style>
 </defs>
 <g>
  <g>
   <path class="fil0 str0" d="M38.36 275.81c-0.65,-11.63 -1.29,-23.26 -1.94,-32.06 -0.64,-8.8 -1.29,-14.78 -1.61,-19.3 -0.33,-4.52 -0.33,-7.59 -0.33,-11.31 0,-3.71 0,-8.07 0,-12.51 0,-4.45 0,-8.97 0,-13.49 0,-4.52 0,-9.05 -0.24,-14.7 -0.24,-5.65 -0.72,-12.43 -1.13,-19.78 -0.4,-7.35 -0.72,-15.27 -0.89,-24.23 -0.16,-8.96 -0.16,-18.98 0,-26.97 0.17,-8 0.49,-13.97 0.57,-19.87 0.08,-5.89 -0.08,-11.71 -0.49,-16.55 -0.4,-4.85 -1.05,-8.72 -0.96,-11.47 0.08,-2.75 0.88,-4.36 0.88,-7.99 0,-3.64 -0.8,-9.29 -1.21,-13.73 -0.4,-4.44 -0.4,-7.68 -0.4,-10.91"/>
   <path class="fil0 str0" d="M20.43 34.03c6.14,0.16 12.28,0.32 17.69,0.64 5.41,0.33 10.09,0.81 14.13,0.97 4.04,0.16 7.43,0 12.92,-0.16 5.49,-0.16 13.09,-0.32 19.22,-0.73 6.14,-0.4 10.82,-1.05 17.04,-1.29 6.22,-0.24 13.97,-0.08 23.1,0 9.12,0.08 19.62,0.08 31.01,-0.16 11.38,-0.24 23.66,-0.73 33.19,-0.81 9.53,-0.08 16.31,0.24 20.83,0.24 4.53,0 6.79,-0.32 8.08,1.14 1.29,1.45 1.61,4.68 1.78,7.91 0.16,3.23 0.16,6.46 -0.08,9.93 -0.25,3.47 -0.73,7.19 -1.22,10.9"/>
   <path class="fil0 str0" d="M74.79 35.2c-6.17,5.75 -12.34,11.49 -17.19,16.79 -4.86,5.29 -8.42,10.14 -12.33,15 -3.92,4.86 -8.2,9.73 -10.87,13.04 -2.66,3.31 -3.71,5.06 -4.76,6.81"/>
  </g>
 </g>
</svg>
