<?xml version="1.0" encoding="UTF-8"?>
<!DOCTYPE svg PUBLIC "-//W3C//DTD SVG 1.1//EN" "http://www.w3.org/Graphics/SVG/1.1/DTD/svg11.dtd">
<svg xmlns="http://www.w3.org/2000/svg" xml:space="preserve" width="30px" height="30px" version="1.1" style="shape-rendering:geometricPrecision; text-rendering:geometricPrecision; image-rendering:optimizeQuality; fill-rule:evenodd; clip-rule:evenodd"
viewBox="0 0 30 30"
 xmlns:xlink="http://www.w3.org/1999/xlink"
 xmlns:xodm="http://www.corel.com/coreldraw/odm/2003">
 <defs>
  <style type="text/css">
   <![CDATA[
    .fil1 {fill:#ffed00ff}
    .fil0 {fill:#ffed00ff}
   ]]>
  </style>
 </defs>
 <g>
  <path class="fil0" d="M5.09 15.53c0.45,2.75 3.78,1.62 4.65,2 0.27,0.11 2.68,2.4 3.14,2.77 1.05,0.87 1.65,1.84 2.58,1.53 0.97,-0.31 0.74,-1.39 0.74,-2.54l0 -10.02c0,-1.02 0.22,-2.4 -0.49,-2.8 -0.46,-0.26 -0.96,-0.2 -1.31,0.07l-4.44 3.98c-0.93,0.81 -4,-0.76 -4.79,1.82 -0.15,0.48 -0.18,2.63 -0.08,3.19z"/>
  <rect class="fil1" transform="matrix(0.998672 -0.998672 0.701747 0.701747 17.7664 11.9358)" width="1.34" height="8.13" rx="2.83" ry="2.83"/>
  <rect class="fil1" transform="matrix(0.998672 0.998672 0.701747 -0.701747 17.7664 16.2995)" width="1.34" height="8.13" rx="2.83" ry="2.83"/>
 </g>
</svg>
