<?xml version="1.0" encoding="UTF-8"?>
<!DOCTYPE svg PUBLIC "-//W3C//DTD SVG 1.1//EN" "http://www.w3.org/Graphics/SVG/1.1/DTD/svg11.dtd">
<!-- Creator: CorelDRAW -->
<svg xmlns="http://www.w3.org/2000/svg" xml:space="preserve" width="30px" height="30px" version="1.1" style="shape-rendering:geometricPrecision; text-rendering:geometricPrecision; image-rendering:optimizeQuality; fill-rule:evenodd; clip-rule:evenodd"
viewBox="0 0 30 30"
 xmlns:xlink="http://www.w3.org/1999/xlink"
 xmlns:xodm="http://www.corel.com/coreldraw/odm/2003">
 <defs>
  <style type="text/css">
   <![CDATA[
    .fil0 {fill:#ffed00ff}
   ]]>
  </style>
 </defs>
 <g>
  <g>
   <path class="fil0" d="M5.09 15.53c0.45,2.75 3.78,1.62 4.65,2 0.27,0.11 2.68,2.4 3.14,2.77 1.05,0.87 1.65,1.84 2.58,1.53 0.97,-0.31 0.74,-1.39 0.74,-2.54l0 -10.02c0,-1.02 0.22,-2.4 -0.49,-2.8 -0.46,-0.26 -0.96,-0.2 -1.31,0.07l-4.44 3.98c-0.93,0.81 -4,-0.76 -4.79,1.82 -0.15,0.48 -0.18,2.63 -0.08,3.19z"/>
   <path class="fil0" d="M20.28 9.8c0.16,0.48 3.04,2.27 1.84,5.91 -0.55,1.69 -1.36,1.91 -1.73,2.46 -0.35,0.52 -0.1,1.2 0.5,1.29 1.07,0.15 3.96,-3.17 2.94,-7.07 -0.36,-1.37 -1.76,-3.49 -2.62,-3.64 -0.64,-0.11 -1.14,0.42 -0.93,1.05z"/>
   <path class="fil0" d="M18.16 12.4c0.16,0.56 0.72,0.57 0.84,1.43 0.15,1 -0.43,1.34 -0.64,1.6 -0.74,0.93 0.5,2.36 1.7,0.62 0.69,-1 0.84,-2.3 0.23,-3.52 -0.99,-1.98 -2.41,-1.12 -2.13,-0.13z"/>
  </g>
 </g>
</svg>
