<?xml version="1.0" encoding="UTF-8"?>
<svg id="car0" xmlns="http://www.w3.org/2000/svg" viewBox="0 0 200 70.72" xmlns:xlink="http://www.w3.org/1999/xlink" xmlns:xodm="http://www.corel.com/coreldraw/odm/2003">
<g>
   <path d="M12.91 36.61c0.12,-1.41 0.05,-9.27 -0.27,-10.19 -0.43,-1.24 -5.15,-4.19 -6.32,-4.35 -0.48,1.52 -1.19,11.57 -0.8,13.15 1.79,1.01 5.03,1.43 7.39,1.39zm184.03 5.15c0.09,-2.69 -2.43,-6.79 -4.01,-8.39 -1.57,-1.59 -8.96,-1.24 -10.61,0.11 0.66,1.29 1.85,1.08 3.22,1.78 1.07,0.56 1.87,1.41 2.5,2.18 1.41,1.75 2.41,3.79 3.74,5.51 2.03,0.25 3.34,-0.7 5.16,-1.19zm-108.2 -18.67c-0.08,-2.66 -1.05,-6.35 -1.55,-9.23 -0.52,-2.99 -1,-5.81 -1.68,-8.86 -6.51,-1.17 -22.76,-0.62 -28.41,0.79 -7.12,1.78 -15.97,6.63 -15.14,15.12 0.92,0.37 43.51,2.41 46.78,2.18zm54.76 3.28c-0.62,-2.07 -6.99,-7.44 -9.51,-9.23 -11.43,-8.13 -30.16,-12.39 -44.05,-12.35l4.18 19.03 49.38 2.55zm37.26 34.29c0.03,-7.17 0.67,-10.79 -3.2,-15.92 -6.12,-8.09 -18.86,-8.43 -26.71,0.19 -4.99,5.48 -4.17,9.44 -4.69,14.98l-85.24 -1.21c0.01,-6.25 -1.18,-10.05 -4.43,-13.85 -2.58,-3.02 -7.32,-5.66 -12.59,-5.74 -5.6,-0.07 -10.09,2.76 -12.73,5.64 -2.47,2.7 -3.92,5.56 -4.63,9.29 -0.18,0.96 -0.15,3.06 -0.64,3.77 -2.8,1.6 -17.12,-1.41 -19.86,-2.56 -6.47,-2.73 -8.09,-13.5 -3.16,-19.82 1.48,-1.88 1.39,-1.02 1.55,-4.31 0.08,-1.55 0.7,-9.14 1.13,-10.14 2.89,-6.69 11.25,-3.35 17.64,-4.75l15.43 -7.26c4.31,-1.96 10.77,-5.2 16.17,-6.25 10.4,-2.01 31.25,-3.62 41.62,-1.42 3.33,0.71 6.9,0.83 10.18,1.58 3.27,0.74 6.08,1.32 9.26,2.22 6.46,1.83 10.66,4.15 15.83,6.86 2.67,1.39 4.67,2.55 7.3,4.09 1.97,1.14 5.29,3.7 7.15,4.18 18.74,4.85 42.27,0.93 50.51,17.86 0.7,1.43 0.99,2.66 1.6,4 2.23,4.86 2.59,7.57 -0.47,13.31 -2.32,4.35 -3.22,4.72 -6.28,5 -3.44,0.31 -6.93,0.59 -10.74,0.26z"/>
   <path d="M33.97 58.37c3.46,12.91 21.62,8.26 19.12,-4.52 -0.8,-4.1 -5.72,-8.56 -11.69,-7.33 -4.55,0.93 -9.01,5.95 -7.43,11.85zm23.93 0.8c-1.46,7.13 -8.84,13.32 -17.35,11.45 -18.6,-4.09 -13.81,-32.12 5.78,-28.89 7.16,1.19 13.35,8.77 11.57,17.44z"/>
   <path d="M166.27 46.28c-12.13,-3.36 -17.74,14.93 -5.17,18.9 5.36,1.7 10.86,-1.9 12.12,-6.58 1.69,-6.29 -1.95,-10.94 -6.95,-12.32zm-16.94 11.3c-1.5,-8.78 5.29,-15.17 12.57,-16.48 8.18,-1.48 15.97,5.69 16.49,12.66 1.09,14.49 -14.03,21.37 -23.84,13.4 -3.19,-2.59 -4.47,-5.19 -5.22,-9.58z"/>
</g>
</svg>
