<?xml version="1.0" encoding="UTF-8"?>
<svg xmlns="http://www.w3.org/2000/svg" viewBox="0 0 50 59.57" xmlns:xlink="http://www.w3.org/1999/xlink" xmlns:xodm="http://www.corel.com/coreldraw/odm/2003">
  <g>
   <path fill="#1f2041" d="M6 22.84c0.63,-0.45 1.37,-1.33 2.91,-2.38 0.76,-0.51 2.62,-1.57 3.61,-1.81l3.23 8.49c0.58,-0.16 1.24,-0.43 1.87,-0.61 1.97,-0.57 4.36,-1.01 6.42,-1.17 0.38,1.49 3.09,7.7 3.14,8.53 -4.28,0.43 -7.31,1.88 -8.11,2l-3.28 -8.65c-1.54,0.13 -5.28,2.82 -6.48,4.19 -0.28,-0.22 -0.29,-0.48 -0.48,-0.99l-1.23 -3.24c-0.3,-0.78 -1.55,-3.74 -1.6,-4.36zm31.68 -8.53c0.27,-0.29 1.2,-0.59 1.6,-0.78 2.15,-1.01 2.65,-1.69 4.22,-2.87l2.64 9.13 -2.43 1.63c-0.69,0.41 -2.02,1.1 -2.8,1.31 0.27,1.19 2.95,7.31 2.96,8.07 -1.25,0.63 -6.58,2.08 -8.1,1.98l-3.12 -8.21c2.7,-0.17 6,-0.91 8.24,-1.78l-3.21 -8.48zm-28.14 -3.48c1.26,-0.82 6.41,-1.63 8.23,-1.81l2.19 5.73c0.13,0.34 0.25,0.65 0.38,0.99 0.61,1.62 0.59,0.83 -3.99,1.77 -1.91,0.39 -2.81,0.85 -3.88,1.09l-2.93 -7.77zm16.95 -2.6c2.26,-0.24 4.1,-0.57 6.24,-1.16 0.65,-0.18 1.31,-0.48 1.95,-0.63 0.47,1.26 0.96,2.58 1.47,3.89 0.32,0.82 1.37,3.26 1.45,4l-3.86 1.04c-1.41,0.3 -2.83,0.52 -4.3,0.67 0.07,0.57 2.73,7.2 3.16,8.46 -0.42,0.23 -8.05,0.79 -8.62,0.84l-3.22 -8.51c1.43,-0.14 2.84,-0.27 4.28,-0.39 1.44,-0.12 3.05,-0.17 4.33,-0.4 -0.31,-1.26 -2.92,-7.26 -2.88,-7.81zm-24.5 5.78c-0.25,-0.71 -0.42,-1.67 -1.43,-1.37 -0.94,0.27 -0.47,1.34 -0.21,2.02l14.37 37.71c0.53,1.4 1.06,2.77 1.59,4.16 0.27,0.71 0.53,1.39 0.8,2.12 0.27,0.73 0.91,1.41 1.63,0.65 0.52,-0.56 -0.06,-1.49 -0.29,-2.09l-2.41 -6.34c-1.07,-2.8 -2.07,-5.63 -3.2,-8.4 0.81,-1.35 3.27,-3.23 4.69,-4.08 8.86,-5.29 22.14,-1.75 31.15,-8.62 1.66,-1.26 1.46,-1.12 0.97,-2.83 -1.33,-4.59 -2.62,-9.22 -3.92,-13.78l-3.42 -11.99c-0.66,-2.38 -1.54,-0.41 -3.37,1.08 -8.85,7.16 -21.61,2.89 -31.85,8 -3.24,1.62 -4.6,3.5 -5.1,3.76z"/>
   <path fill="#fff" d="M6 22.84c0.05,0.62 1.3,3.58 1.6,4.36l1.23 3.24c0.19,0.51 0.2,0.77 0.48,0.99 1.2,-1.37 4.94,-4.06 6.48,-4.19l3.28 8.65c0.8,-0.12 3.83,-1.57 8.11,-2 -0.05,-0.83 -2.76,-7.04 -3.14,-8.53 -2.06,0.16 -4.45,0.6 -6.42,1.17 -0.63,0.18 -1.29,0.45 -1.87,0.61l-3.23 -8.49c-0.99,0.24 -2.85,1.3 -3.61,1.81 -1.54,1.05 -2.28,1.93 -2.91,2.38z"/>
   <path fill="#fff" d="M26.49 8.23c-0.04,0.55 2.57,6.55 2.88,7.81 -1.28,0.23 -2.89,0.28 -4.33,0.4 -1.44,0.12 -2.85,0.25 -4.28,0.39l3.22 8.51c0.57,-0.05 8.2,-0.61 8.62,-0.84 -0.43,-1.26 -3.09,-7.89 -3.16,-8.46 1.47,-0.15 2.89,-0.37 4.3,-0.67l3.86 -1.04c-0.08,-0.74 -1.13,-3.18 -1.45,-4 -0.51,-1.31 -1,-2.63 -1.47,-3.89 -0.64,0.15 -1.3,0.45 -1.95,0.63 -2.14,0.59 -3.98,0.92 -6.24,1.16z"/>
   <path fill="#fff" d="M40.89 22.79c-2.24,0.87 -5.54,1.61 -8.24,1.78l3.12 8.21c1.52,0.1 6.85,-1.35 8.1,-1.98 -0.01,-0.76 -2.69,-6.88 -2.96,-8.07 0.78,-0.21 2.11,-0.9 2.8,-1.31l2.43 -1.63 -2.64 -9.13c-1.57,1.18 -2.07,1.86 -4.22,2.87 -0.4,0.19 -1.33,0.49 -1.6,0.78l3.21 8.48z"/>
   <path fill="#fff" d="M12.47 18.6c1.07,-0.24 1.97,-0.7 3.88,-1.09 4.58,-0.94 4.6,-0.15 3.99,-1.77 -0.13,-0.34 -0.25,-0.65 -0.38,-0.99l-2.19 -5.73c-1.82,0.18 -6.97,0.99 -8.23,1.81l2.93 7.77z"/>
  </g>
</svg>
