<?xml version="1.0" encoding="UTF-8"?>
<!DOCTYPE svg PUBLIC "-//W3C//DTD SVG 1.1//EN" "http://www.w3.org/Graphics/SVG/1.1/DTD/svg11.dtd">
<!-- Creator: CorelDRAW -->
<svg xmlns="http://www.w3.org/2000/svg" xml:space="preserve" width="135px" height="135px" version="1.1" style="shape-rendering:geometricPrecision; text-rendering:geometricPrecision; image-rendering:optimizeQuality; fill-rule:evenodd; clip-rule:evenodd"
viewBox="0 0 135 135"
 xmlns:xlink="http://www.w3.org/1999/xlink"
 xmlns:xodm="http://www.corel.com/coreldraw/odm/2003">
 <defs>
  <style type="text/css">
   <![CDATA[
    .fil1 {fill:none}
    .fil0 {fill:#665F55}
   ]]>
  </style>
 </defs>
 <g id="Слой_x0020_1">
  <metadata id="CorelCorpID_0Corel-Layer"/>
  <path class="fil0" d="M100.69 39.31c4.53,-2.92 9.07,-5.83 11.95,-6.38 2.87,-0.54 4.09,1.29 5.3,3.25 1.21,1.96 2.4,4.06 3.38,6.02 0.98,1.97 1.76,3.81 -0.34,5.93 -2.07,2.09 -6.93,4.44 -11.83,6.8 1.23,4.06 1.89,8.36 1.89,12.82 0,24.42 -19.8,44.21 -44.22,44.21 -24.42,0 -44.21,-19.79 -44.21,-44.21 0,-24.43 19.79,-44.22 44.21,-44.22 13.61,0 25.77,6.14 33.89,15.81l-0.02 -0.03zm-33.87 -6.88c19.5,0 35.32,15.81 35.32,35.32 0,19.5 -15.82,35.31 -35.32,35.31 -19.5,0 -35.31,-15.81 -35.31,-35.31 0,-19.51 15.81,-35.32 35.31,-35.32z"/>
  <circle class="fil1" cx="67.13" cy="67.87" r="67.5"/>
 </g>
</svg>
