<?xml version="1.0" encoding="UTF-8"?>
<!DOCTYPE svg PUBLIC "-//W3C//DTD SVG 1.1//EN" "http://www.w3.org/Graphics/SVG/1.1/DTD/svg11.dtd">
<!-- Creator: CorelDRAW -->
<svg xmlns="http://www.w3.org/2000/svg" xml:space="preserve" width="48px" height="50px" version="1.1" style="shape-rendering:geometricPrecision; text-rendering:geometricPrecision; image-rendering:optimizeQuality; fill-rule:evenodd; clip-rule:evenodd"
viewBox="0 0 48 50.31"
 xmlns:xlink="http://www.w3.org/1999/xlink"
 xmlns:xodm="http://www.corel.com/coreldraw/odm/2003">
 <defs>
  <style type="text/css">
   <![CDATA[
    .fil0 {fill:#fff}
   ]]>
  </style>
 </defs>
 <g id="Слой_x0020_1">
  <metadata id="CorelCorpID_0Corel-Layer"/>
  <g id="_2802453323936">
   <path class="fil0" d="M23.58 0.12c-3.04,0.43 -5.54,3.07 -5.07,6.63 0.98,7.52 12.64,6.28 11.65,-1.59 -0.37,-2.97 -3.14,-5.52 -6.58,-5.04z"/>
   <path class="fil0" d="M4.61 12.49c0.19,2.7 2.77,5.02 5.8,4.72 6.67,-0.66 6.15,-11.1 -1.1,-10.53 -2.76,0.22 -4.92,2.71 -4.7,5.81z"/>
   <path class="fil0" d="M8.4 27.6c0.84,-2.76 -1.19,-5.13 -3.28,-5.72 -2.81,-0.79 -5.2,1.12 -5.78,3.3 -1.56,5.8 7.15,8.64 9.06,2.42z"/>
   <path class="fil0" d="M5.89 41.92c1.38,5.22 9.37,3.23 7.92,-2.15 -0.49,-1.82 -2.39,-3.48 -4.95,-2.87 -1.86,0.44 -3.65,2.43 -2.97,5.02z"/>
   <path class="fil0" d="M27.81 47.42c0.33,-2.04 -1.14,-3.73 -2.84,-4 -2.13,-0.34 -3.81,1.07 -4.09,2.82 -0.77,4.71 6.17,5.79 6.93,1.18z"/>
   <path class="fil0" d="M35.91 41.45c0.24,1.42 1.66,2.56 3.42,2.31 1.48,-0.2 2.6,-1.61 2.36,-3.39 -0.48,-3.52 -6.45,-2.94 -5.78,1.08z"/>
   <path class="fil0" d="M42.51 26.97c0.61,2.69 5.24,2.1 4.58,-1.08 -0.57,-2.75 -5.3,-2.11 -4.58,1.08z"/>
   <path class="fil0" d="M37.06 12.17c0.29,2.21 3.74,1.92 3.5,-0.42 -0.24,-2.32 -3.81,-1.95 -3.5,0.42z"/>
  </g>
 </g>
</svg>
