<?xml version="1.0" encoding="UTF-8"?>
<!DOCTYPE svg PUBLIC "-//W3C//DTD SVG 1.1//EN" "http://www.w3.org/Graphics/SVG/1.1/DTD/svg11.dtd">
<!-- Creator: CorelDRAW -->
<svg xmlns="http://www.w3.org/2000/svg" xml:space="preserve" width="30px" height="30px" version="1.1" style="shape-rendering:geometricPrecision; text-rendering:geometricPrecision; image-rendering:optimizeQuality; fill-rule:evenodd; clip-rule:evenodd"
viewBox="0 0 30 29.93"
 xmlns:xlink="http://www.w3.org/1999/xlink"
 xmlns:xodm="http://www.corel.com/coreldraw/odm/2003">
 <defs>
  <style type="text/css">
   <![CDATA[
    .fil0 {fill:#FFED00}
   ]]>
  </style>
 </defs>
 <g>
  <metadata id="CorelCorpID_0Corel-Layer"/>
  <path class="fil0" d="M25.58 23.16c2.44,0 4.42,-1.98 4.42,-4.42 0,-2.44 -1.98,-4.42 -4.42,-4.42 -1.35,0 -2.56,0.61 -3.37,1.57l0 -8.13 -8.43 0c0.91,-0.81 1.49,-1.99 1.49,-3.31 0,-2.44 -1.98,-4.41 -4.42,-4.41 -2.44,0 -4.42,1.97 -4.42,4.41 0,1.32 0.58,2.5 1.49,3.31l-7.92 0 0 7.76c0.81,-0.98 2.03,-1.6 3.4,-1.6 2.44,0 4.42,1.98 4.42,4.42 0,2.43 -1.98,4.41 -4.42,4.41 -1.37,0 -2.59,-0.62 -3.4,-1.6l0 8.81 8.45 0c-1.1,-0.8 -1.82,-2.1 -1.82,-3.57 0,-2.44 1.98,-4.42 4.42,-4.42 2.44,0 4.42,1.98 4.42,4.42 0,1.47 -0.72,2.77 -1.83,3.57l8.57 0 0 -8.37c0.81,0.96 2.02,1.57 3.37,1.57z"/>
 </g>
</svg>
