<?xml version="1.0" encoding="UTF-8"?>
<svg id="waves2" xmlns="http://www.w3.org/2000/svg" viewBox="0 0 50 50" xmlns:xlink="http://www.w3.org/1999/xlink" xmlns:xodm="http://www.corel.com/coreldraw/odm/2003">
 <g id="layer-2">
  <path d="M32.7 36.74c-0.08,-0.23 -0.48,-21.4 0.13,-22.59 0.98,-1.93 4.12,-1.76 4.69,0.28 0.23,0.82 0.3,21.8 -0.1,22.65 -0.91,1.95 -3.94,1.78 -4.72,-0.34z"/>
  <path d="M17.23 34.06c-0.34,-1.07 -0.12,-10.6 -0.12,-12.56 0,-1.85 -0.4,-4.51 0.83,-5.55 1.48,-1.24 3.82,-0.51 4.2,1.33 0.43,2.12 0.08,9.96 0.08,12.66 0,1.99 0.35,4.43 -0.93,5.42 -1.08,0.83 -3.37,0.9 -4.06,-1.3z"/>
  <path d="M7.37 28.91c-0.42,2.03 -3.45,2.34 -4.56,0.7 -0.57,-0.84 -0.57,-6.04 -0.3,-7.26 0.47,-2.13 3.5,-2.31 4.55,-0.71 0.6,0.91 0.59,5.96 0.31,7.27z"/>
 </g>
</svg>
