<?xml version="1.0" encoding="UTF-8"?>
<svg id="waves1" xmlns="http://www.w3.org/2000/svg" viewBox="0 0 50 50" xmlns:xlink="http://www.w3.org/1999/xlink" xmlns:xodm="http://www.corel.com/coreldraw/odm/2003">
 <g id="layer-1">
  <path d="M29.91 43.95c-0.17,1.55 -1.64,2.63 -3.37,2.09 -1.78,-0.55 -1.63,-2.22 -1.63,-4.15 0.01,-3.85 0,-7.69 0,-11.54 0,-4.49 -0.24,-19.95 0,-23.08 0.12,-1.54 1.65,-2.63 3.32,-2.09 1.74,0.57 1.69,2.21 1.69,4.17l-0.01 34.6z"/>
  <path d="M14.44 39c-0.34,2.64 -4.58,2.72 -4.97,0l-0.01 -26.57c0.33,-2.95 4.68,-2.97 4.98,0l0 26.57z"/>
  <path d="M45.27 28.91c-0.43,2.03 -3.46,2.34 -4.57,0.7 -0.56,-0.84 -0.56,-6.04 -0.3,-7.26 0.47,-2.13 3.5,-2.31 4.56,-0.71 0.59,0.91 0.58,5.96 0.31,7.27z"/>
 </g>
</svg>
